<svg xmlns="http://www.w3.org/2000/svg" width="514.956" height="583.235" viewBox="0 0 514.956 583.235">
  <g id="Groupe_9" data-name="Groupe 9" transform="translate(-752 -1586.95)">
    <path id="Tracé_422" data-name="Tracé 422" d="M165.268,222.177,344.138,73.24a18.2,18.2,0,0,0-2.547-29.933L275.765,5.322a36.666,36.666,0,0,0-36.666,0L58.365,109.678A116.821,116.821,0,0,0,0,210.8V419.516A36.711,36.711,0,0,0,18.2,451.36l55.726,32.162a19.106,19.106,0,0,0,28.2-12.419L152.94,242.421a36.666,36.666,0,0,1,12.328-20.243Z" transform="translate(752 1586.54)" fill="#d31c21"/>
    <path id="Tracé_423" data-name="Tracé 423" d="M376.983,62.126,308.747,22.686A17.6,17.6,0,0,0,282.771,34.1L232.095,262.513a43.171,43.171,0,0,1-14.557,23.928L40.124,434.332a17.878,17.878,0,0,0,2.5,29.205l77.061,44.49a36.665,36.665,0,0,0,36.666,0L330.764,407.265a129.24,129.24,0,0,0,64.6-111.908V93.879A36.711,36.711,0,0,0,376.983,62.126Z" transform="translate(871.594 1657.245)" fill="#d31c21"/>
    <ellipse id="Ellipse_122" data-name="Ellipse 122" cx="34.709" cy="35.619" rx="34.709" ry="35.619" transform="translate(968.036 1839.877)" fill="#d31c21"/>
  </g>
</svg>
