<svg xmlns="http://www.w3.org/2000/svg" width="391.356" height="443.246" viewBox="0 0 391.356 443.246">
  <g id="Groupe_9" data-name="Groupe 9" transform="translate(-752 -1586.95)" opacity="0.28">
    <path id="Tracé_422" data-name="Tracé 422" d="M125.6,168.949,261.538,55.76A13.829,13.829,0,0,0,259.6,33.011L209.576,4.143a27.865,27.865,0,0,0-27.865,0L44.356,83.452A88.781,88.781,0,0,0,0,160.306V318.922a27.9,27.9,0,0,0,13.829,24.2L56.18,367.565a14.52,14.52,0,0,0,21.435-9.438l38.617-173.794a27.865,27.865,0,0,1,9.369-15.385Z" transform="translate(752 1586.54)" fill="#a3d9ed"/>
    <path id="Tracé_423" data-name="Tracé 423" d="M294.587,52.1,242.729,22.121A13.379,13.379,0,0,0,222.989,30.8L184.475,204.385a32.809,32.809,0,0,1-11.063,18.185L38.581,334.964a13.587,13.587,0,0,0,1.9,22.2l58.565,33.812a27.865,27.865,0,0,0,27.865,0l132.549-76.577a98.22,98.22,0,0,0,49.092-85.047V76.226A27.9,27.9,0,0,0,294.587,52.1Z" transform="translate(834.801 1635.493)" fill="#a3d9ed"/>
    <ellipse id="Ellipse_122" data-name="Ellipse 122" cx="26.378" cy="27.07" rx="26.378" ry="27.07" transform="translate(916.183 1779.169)" fill="#a3d9ed"/>
  </g>
</svg>
