<svg id="Calque_2" data-name="Calque 2" xmlns="http://www.w3.org/2000/svg" width="79.932" height="24.449" viewBox="0 0 79.932 24.449">
  <g id="Calque_2-2" data-name="Calque 2" transform="translate(0 0)">
    <path id="Tracé_410" data-name="Tracé 410" d="M161.142,36.822c0,3.916-2.839,6.94-6.284,6.94a4.949,4.949,0,0,1-3.916-1.6v6.493H147v-18.4h3.943v1.235a4.938,4.938,0,0,1,3.916-1.6C158.3,29.88,161.142,32.9,161.142,36.822Zm-3.943,0a3.13,3.13,0,1,0-6.257,0,3.13,3.13,0,1,0,6.257,0Z" transform="translate(-119.066 -24.202)" fill="#0f2335"/>
    <path id="Tracé_411" data-name="Tracé 411" d="M229.719,36.6a6.966,6.966,0,1,1,6.966,6.94,6.89,6.89,0,0,1-6.966-6.94Zm9.99,0a3.024,3.024,0,1,0-3.023,3.1A2.949,2.949,0,0,0,239.709,36.6Z" transform="translate(-186.067 -23.983)" fill="#0f2335"/>
    <path id="Tracé_412" data-name="Tracé 412" d="M314.81,0h3.943V19.192H314.81Z" transform="translate(-254.988)" fill="#0f2335"/>
    <path id="Tracé_413" data-name="Tracé 413" d="M347.319,36.6a6.966,6.966,0,1,1,6.97,6.94,6.89,6.89,0,0,1-6.97-6.94Zm9.99,0a3.024,3.024,0,1,0-3.02,3.1A2.949,2.949,0,0,0,357.309,36.6Z" transform="translate(-281.32 -23.983)" fill="#0f2335"/>
    <path id="Tracé_414" data-name="Tracé 414" d="M6.9,9.674l7.472-6.221a.76.76,0,0,0-.106-1.25L11.519.615a1.532,1.532,0,0,0-1.532,0L2.438,4.975A4.88,4.88,0,0,0,0,9.2v8.718a1.533,1.533,0,0,0,.76,1.33l2.328,1.343a.8.8,0,0,0,1.178-.519l2.123-9.553A1.532,1.532,0,0,1,6.9,9.674Z" transform="translate(0 -0.332)" fill="#a3d9ed"/>
    <path id="Tracé_415" data-name="Tracé 415" d="M48.037,22.079l-2.85-1.648a.735.735,0,0,0-1.085.477l-2.117,9.541a1.8,1.8,0,0,1-.608,1l-7.411,6.178a.747.747,0,0,0,.1,1.22L37.289,40.7a1.532,1.532,0,0,0,1.532,0L46.106,36.5a5.4,5.4,0,0,0,2.7-4.675V23.4A1.533,1.533,0,0,0,48.037,22.079Z" transform="translate(-27.294 -16.469)" fill="#d31c21"/>
    <ellipse id="Ellipse_118" data-name="Ellipse 118" cx="1.45" cy="1.488" rx="1.45" ry="1.488" transform="translate(9.024 10.643)" fill="#0f2335"/>
  </g>
</svg>
