<svg xmlns="http://www.w3.org/2000/svg" width="1200.715" height="597.716" viewBox="0 0 1200.715 597.716">
  <g id="points_group" data-name="points group" transform="translate(-100.517 -1627.038)">
    <path id="Tracé_416" data-name="Tracé 416" d="M79,72.974a6.858,6.858,0,1,1,6.858,6.831A6.777,6.777,0,0,1,79,72.974Zm9.837,0a2.979,2.979,0,1,0-2.979,3.06,2.9,2.9,0,0,0,3.02-3.06Z" transform="translate(21.517 1624.948)" fill="#ffee50"/>
    <path id="Tracé_417" data-name="Tracé 417" d="M79,72.974a6.858,6.858,0,1,1,6.858,6.831A6.777,6.777,0,0,1,79,72.974Zm9.837,0a2.979,2.979,0,1,0-2.979,3.06,2.9,2.9,0,0,0,3.02-3.06Z" transform="translate(1208.517 2100.948)" fill="#ffee50"/>
    <path id="Tracé_418" data-name="Tracé 418" d="M79,72.974a6.858,6.858,0,1,1,6.858,6.831A6.777,6.777,0,0,1,79,72.974Zm9.837,0a2.979,2.979,0,1,0-2.979,3.06,2.9,2.9,0,0,0,3.02-3.06Z" transform="translate(525.517 2144.948)" fill="#ffee50"/>
    <path id="Tracé_419" data-name="Tracé 419" d="M79,72.974a6.858,6.858,0,1,1,6.858,6.831A6.777,6.777,0,0,1,79,72.974Zm9.837,0a2.979,2.979,0,1,0-2.979,3.06,2.9,2.9,0,0,0,3.02-3.06Z" transform="translate(153.517 2024.948)" fill="#ffee50"/>
    <path id="Tracé_420" data-name="Tracé 420" d="M79,72.974a6.858,6.858,0,1,1,6.858,6.831A6.777,6.777,0,0,1,79,72.974Zm9.837,0a2.979,2.979,0,1,0-2.979,3.06,2.9,2.9,0,0,0,3.02-3.06Z" transform="translate(1096.517 1610.948)" fill="#ffee50"/>
    <path id="Tracé_421" data-name="Tracé 421" d="M79,72.974a6.858,6.858,0,1,1,6.858,6.831A6.777,6.777,0,0,1,79,72.974Zm9.837,0a2.979,2.979,0,1,0-2.979,3.06,2.9,2.9,0,0,0,3.02-3.06Z" transform="translate(769.517 1560.948)" fill="#ffee50"/>
  </g>
</svg>
